<svg width="260" height="37" viewBox="0 0 260 37" fill="none" xmlns="http://www.w3.org/2000/svg">
<g clip-path="url(#clip0_37_22)">
<path d="M54.5895 31.422L54.4108 31.3317C54.0843 31.168 53.8151 30.9121 53.6377 30.5969C53.4603 30.2818 53.3827 29.9217 53.415 29.5628C53.5305 28.2667 53.5438 26.9638 53.4548 25.6657C53.4279 25.3099 53.5084 24.9541 53.6863 24.643C53.8641 24.3319 54.1314 24.0794 54.4547 23.9169L54.708 23.7905C55.0677 23.611 55.3578 23.3207 55.5337 22.964C55.7097 22.6071 55.7619 22.2035 55.6823 21.8148C55.5686 21.2606 55.4362 20.7065 55.285 20.1523C55.1737 19.7377 55.0501 19.3272 54.9214 18.9216C54.7974 18.5394 54.5479 18.2085 54.2121 17.9805C53.8764 17.7526 53.4732 17.6404 53.0657 17.6617L52.8451 17.6727C52.4791 17.6933 52.1153 17.6058 51.8002 17.4215C51.4852 17.2373 51.2334 16.9647 51.0773 16.6387C50.5119 15.4519 49.8525 14.3106 49.1051 13.2254C48.9043 12.9305 48.7964 12.5839 48.7948 12.229C48.7932 11.874 48.8978 11.5265 49.0959 11.2297L49.2399 11.0129C49.4612 10.6783 49.5643 10.2814 49.5333 9.88355C49.5023 9.48565 49.3389 9.10885 49.0683 8.81134C48.395 8.06903 47.6814 7.36294 46.9307 6.69615C46.6287 6.42696 46.2446 6.26349 45.8382 6.23122C45.4319 6.19889 45.026 6.29952 44.6839 6.51746L44.4898 6.64095C44.1856 6.83711 43.829 6.93992 43.4653 6.93616C43.1014 6.9324 42.747 6.82231 42.4472 6.61984C41.3563 5.87886 40.2087 5.22202 39.0146 4.65522C38.6909 4.49809 38.4214 4.25074 38.2398 3.94403C38.0581 3.63732 37.9724 3.28483 37.9932 2.93054L38.0055 2.67956C38.0274 2.28086 37.9149 1.8862 37.6854 1.55676C37.4559 1.22733 37.1222 0.981536 36.736 0.857495C35.7683 0.54247 34.784 0.278736 33.7876 0.0674309C33.3889 -0.0177711 32.9728 0.0293221 32.6043 0.201342C32.2359 0.373361 31.9357 0.6606 31.7511 1.01812L31.6397 1.22894C31.4755 1.54723 31.2192 1.81061 30.9029 1.98587C30.5867 2.16114 30.2247 2.24043 29.8627 2.21376C28.5639 2.11418 27.2593 2.11251 25.9603 2.20873C25.5989 2.23392 25.238 2.15359 24.9229 1.97784C24.6078 1.8021 24.3527 1.53876 24.1893 1.2209L24.0719 0.994025C23.8884 0.637812 23.5905 0.35112 23.2243 0.17848C22.858 0.00584032 22.444 -0.043079 22.0466 0.0393218C21.5795 0.135695 21.1118 0.24445 20.6433 0.365587L20.5412 0.392692C20.0394 0.526545 19.5451 0.670099 19.0583 0.823364C18.6715 0.946956 18.337 1.19247 18.1065 1.52188C17.8761 1.85129 17.7627 2.2462 17.7837 2.64543L17.7969 2.89741C17.8167 3.2535 17.7288 3.60737 17.5443 3.91445C17.3598 4.22154 17.0871 4.4681 16.7604 4.6231C15.6109 5.16322 14.5047 5.78808 13.4513 6.49235C13.1509 6.69154 12.7974 6.79908 12.4351 6.80139C12.0727 6.80369 11.7178 6.70076 11.4148 6.50539L11.2003 6.36988C10.859 6.15085 10.4536 6.04892 10.0472 6.07995C9.64081 6.111 9.25626 6.27332 8.95348 6.54154C8.17583 7.22707 7.43731 7.95433 6.74131 8.71999C6.47091 9.01751 6.30736 9.39406 6.27579 9.79178C6.24422 10.1895 6.34642 10.5864 6.56668 10.9215L6.70559 11.1314C6.90499 11.4302 7.00979 11.7804 7.0067 12.1378C7.0036 12.4952 6.89279 12.8437 6.6882 13.1391C5.98463 14.1487 5.35723 15.2077 4.81105 16.3074C4.65126 16.6254 4.39978 16.8903 4.08795 17.0688C3.77612 17.2473 3.41774 17.3316 3.05747 17.3113L2.78989 17.2973C2.38486 17.2767 1.98419 17.3875 1.64946 17.6125C1.31473 17.8376 1.0645 18.1646 0.93724 18.5431C0.603325 19.5285 0.324769 20.5312 0.10283 21.5467C0.0162909 21.9394 0.0642074 22.3492 0.239125 22.7123C0.414042 23.0754 0.70615 23.3715 1.07001 23.5545L1.28755 23.663C1.61151 23.8246 1.87948 24.077 2.05762 24.3882C2.23575 24.6995 2.31607 25.0557 2.28842 25.4117C2.19425 26.6168 2.18845 27.8269 2.27106 29.0328C2.29423 29.3864 2.21112 29.7389 2.03208 30.0464C1.85303 30.354 1.58595 30.603 1.26405 30.7625L1.01384 30.888C0.655041 31.067 0.365461 31.3562 0.189064 31.7117C0.0126658 32.0671 -0.0409183 32.4695 0.0364456 32.8576C0.152875 33.4198 0.287006 33.9806 0.43884 34.5402C0.56344 34.9979 0.699613 35.4503 0.847361 35.8974C0.992868 36.3472 1.31233 36.7229 1.73692 36.9435H6.57788C6.0273 35.7612 5.57906 34.5355 5.23796 33.2793C1.91054 21.0217 9.34769 8.38268 21.8178 5.112L21.9026 5.09091C34.3472 1.87845 47.1513 9.18176 50.4726 21.4102C51.8857 26.5835 51.409 32.08 49.1255 36.9435H54.3505C54.5185 36.7621 54.6466 36.5485 54.7263 36.316C55.0542 35.3705 55.3304 34.4084 55.5536 33.4339C55.6429 33.0409 55.5965 32.6299 55.422 32.2657C55.2474 31.9015 54.9545 31.6047 54.5895 31.422Z" fill="#7C4032"/>
<path d="M16.7786 36.9534C15.5545 36.9535 14.3477 36.6693 13.2566 36.124C12.1654 35.5787 11.2207 34.7877 10.4995 33.8155C9.77832 32.8433 9.30104 31.7173 9.10653 30.5294C8.91203 29.3414 9.00581 28.1251 9.38021 26.9795C9.75461 25.834 10.3991 24.7916 11.2611 23.9373C12.1231 23.083 13.1783 22.441 14.3406 22.0636C15.5029 21.6861 16.7395 21.584 17.9496 21.7654C19.1597 21.9469 20.309 22.4068 21.304 23.1076C21.4599 23.2176 21.5649 23.3839 21.5961 23.57C21.6272 23.7561 21.5818 23.9468 21.47 24.1C21.3581 24.2532 21.1889 24.3565 20.9995 24.3871C20.8102 24.4177 20.6163 24.3731 20.4604 24.2631C19.237 23.4038 17.7416 23.0019 16.2436 23.1298C14.7455 23.2578 13.3431 23.9073 12.2889 24.9612C11.2346 26.0152 10.5977 27.4044 10.4928 28.8789C10.388 30.3533 10.822 31.8162 11.7168 33.0041C12.6116 34.192 13.9084 35.0269 15.3738 35.3585C16.8392 35.6901 18.3769 35.4967 19.7101 34.8131C21.0433 34.1293 22.0844 33.0004 22.646 31.6292C23.2076 30.2582 23.2529 28.735 22.7737 27.334C22.7139 27.1554 22.7284 26.9609 22.814 26.7928C22.8996 26.6248 23.0494 26.4968 23.2307 26.4369C23.4119 26.3769 23.61 26.39 23.7815 26.473C23.953 26.5561 24.0842 26.7025 24.1463 26.8803C24.5381 28.0293 24.6464 29.2533 24.4623 30.4515C24.2781 31.6497 23.8067 32.7878 23.0871 33.7717C22.3675 34.7556 21.4201 35.5572 20.3232 36.1104C19.2264 36.6636 18.0114 36.9525 16.7786 36.9534Z" fill="#7C4032"/>
<path d="M38.2619 36.9533C36.9493 36.9527 35.655 36.6509 34.482 36.0721C33.309 35.4932 32.2896 34.6533 31.5049 33.619C30.7203 32.5847 30.1921 31.3847 29.9623 30.1144C29.7325 28.8442 29.8075 27.5387 30.1814 26.302C30.2418 26.1285 30.368 25.9847 30.5337 25.9004C30.6994 25.8162 30.8918 25.798 31.0708 25.8498C31.2498 25.9016 31.4016 26.0193 31.4944 26.1783C31.5873 26.3374 31.6141 26.5255 31.5693 26.7036C31.0875 28.2805 31.1983 29.9752 31.8817 31.4785C32.5651 32.9818 33.7754 34.1936 35.292 34.8929C36.8085 35.5922 38.5302 35.7323 40.1431 35.2878C41.7561 34.8433 43.1527 33.8438 44.0784 32.4714C45.004 31.0992 45.3971 29.4455 45.1858 27.8121C44.9744 26.1787 44.1729 24.6744 42.9272 23.5735C41.6816 22.4725 40.0749 21.8484 38.4001 21.8148C36.7254 21.7813 35.0941 22.3406 33.8039 23.3907C33.6547 23.4949 33.4709 23.5396 33.2895 23.516C33.108 23.4924 32.9424 23.4021 32.826 23.2633C32.7095 23.1246 32.6509 22.9476 32.6618 22.768C32.6727 22.5885 32.7523 22.4196 32.8847 22.2955C33.9259 21.4457 35.16 20.855 36.4825 20.5731C37.8051 20.2913 39.1772 20.3266 40.4829 20.6762C41.7886 21.0258 42.9895 21.6792 43.984 22.5813C44.9785 23.4835 45.7373 24.6078 46.1964 25.8591C46.6555 27.1104 46.8012 28.452 46.6213 29.7704C46.4414 31.0888 45.9411 32.3452 45.1629 33.4334C44.3846 34.5217 43.3512 35.4096 42.15 36.0223C40.9488 36.635 39.6151 36.9543 38.2619 36.9533Z" fill="#7C4032"/>
<path d="M18.1792 29.4814C18.0315 29.4814 17.8872 29.4369 17.7658 29.354C17.6445 29.2711 17.5519 29.1536 17.5004 29.0175C17.449 28.8813 17.4411 28.7329 17.4779 28.5923C17.5147 28.4516 17.5944 28.3253 17.7064 28.2305L24.7677 22.2503L21.8386 21.3237C21.745 21.2977 21.6577 21.2534 21.5818 21.1935C21.5061 21.1336 21.4433 21.0593 21.3974 20.975C21.3514 20.8907 21.3232 20.7982 21.3144 20.703C21.3056 20.6078 21.3165 20.5118 21.3463 20.4208C21.3761 20.3298 21.4242 20.2456 21.4878 20.1732C21.5514 20.1009 21.6292 20.042 21.7165 19.9998C21.8038 19.9577 21.8989 19.9333 21.996 19.9281C22.0932 19.9229 22.1904 19.9369 22.2819 19.9694L27.6661 21.6761L18.6501 29.3137C18.5185 29.423 18.3515 29.4824 18.1792 29.4814Z" fill="#7C4032"/>
<path d="M36.9701 26.7428C36.8985 26.7426 36.8272 26.7321 36.7587 26.7116L27.1758 23.8405L32.7827 18.6935C32.9243 18.5722 33.1082 18.5098 33.2957 18.5193C33.4833 18.5288 33.6597 18.6095 33.7878 18.7444C33.916 18.8793 33.9857 19.0579 33.9825 19.2424C33.9792 19.427 33.9032 19.6031 33.7704 19.7336L29.9915 23.198L37.1754 25.3503C37.3408 25.4 37.4826 25.5063 37.5752 25.6499C37.6678 25.7934 37.7051 25.9648 37.6803 26.1331C37.6555 26.3013 37.5703 26.4553 37.44 26.5671C37.3097 26.6789 37.1431 26.7412 36.9701 26.7428Z" fill="#7C4032"/>
<path d="M17.7042 20.643C17.5411 20.643 17.3828 20.5888 17.255 20.4893C17.1272 20.3898 17.0373 20.2508 16.9998 20.0948C16.9624 19.9388 16.9795 19.775 17.0486 19.6298C17.1177 19.4846 17.2346 19.3666 17.3804 19.2948C19.9266 18.049 26.1412 16.0241 30.7177 15.6205C30.8123 15.6125 30.9076 15.6227 30.9982 15.6509C31.0887 15.679 31.1728 15.7243 31.2456 15.7844C31.3183 15.8444 31.3783 15.9179 31.4221 16.0007C31.4659 16.0836 31.4927 16.1741 31.501 16.2671C31.5093 16.3601 31.4988 16.4538 31.4702 16.5428C31.4416 16.6319 31.3955 16.7145 31.3344 16.786C31.2733 16.8575 31.1985 16.9165 31.1143 16.9595C31.03 17.0026 30.9379 17.029 30.8433 17.037C26.4414 17.4256 20.4679 19.3721 18.0218 20.5688C17.9232 20.6173 17.8144 20.6427 17.7042 20.643Z" fill="#7C4032"/>
<path d="M14.3927 19.0951C14.2291 19.0948 14.0705 19.04 13.9426 18.9398C13.8147 18.8396 13.7251 18.6997 13.6884 18.5431C13.6517 18.3864 13.67 18.2221 13.7404 18.077C13.8108 17.9318 13.9291 17.8144 14.076 17.7438C19.6064 15.1016 26.0356 14.0686 30.4547 13.668C30.5494 13.6594 30.6448 13.6693 30.7355 13.697C30.8263 13.7246 30.9106 13.7696 30.9837 13.8293C31.0568 13.889 31.1171 13.9623 31.1614 14.045C31.2057 14.1276 31.233 14.218 31.2417 14.311C31.2504 14.404 31.2404 14.4978 31.2122 14.587C31.184 14.6762 31.1383 14.7591 31.0776 14.8309C31.0168 14.9028 30.9423 14.9621 30.8582 15.0056C30.7741 15.0491 30.6821 15.0759 30.5875 15.0845C26.2889 15.475 20.0435 16.4749 14.7062 19.0238C14.6084 19.0703 14.5013 19.0946 14.3927 19.0951Z" fill="#7C4032"/>
<path d="M37.8954 12.6631C37.5981 12.3122 37.2214 12.0344 36.7955 11.8519C35.957 11.5077 35.1358 11.1994 32.5887 11.1161C31.7033 11.0928 30.8175 11.1419 29.9404 11.2627C29.762 11.2993 29.6042 11.4008 29.4987 11.547C29.3932 11.693 29.3477 11.8729 29.3713 12.0505C29.395 12.2282 29.486 12.3905 29.6261 12.505C29.7663 12.6195 29.9453 12.6778 30.1273 12.6681C31.1983 12.5145 32.284 12.4862 33.3618 12.5838C32.9917 12.9911 32.744 13.4915 32.6465 14.0292C32.549 14.5668 32.6055 15.1205 32.8097 15.6284C33.0138 16.1364 33.3576 16.5785 33.8027 16.9054C34.2477 17.2323 34.7765 17.4312 35.3299 17.4798C35.4207 17.4878 35.5117 17.4918 35.6015 17.4918C36.3489 17.4903 37.0688 17.2143 37.6199 16.7181C38.171 16.2219 38.5137 15.5411 38.5807 14.8095C38.6164 14.4249 38.5742 14.0373 38.4565 13.6689C38.3389 13.3005 38.1482 12.9586 37.8954 12.6631ZM37.1386 14.6869C37.1119 14.9809 36.9988 15.2609 36.813 15.4928C36.6273 15.7248 36.377 15.8985 36.0925 15.9931C35.8081 16.0877 35.5018 16.0989 35.211 16.0254C34.9202 15.952 34.6574 15.7969 34.4546 15.5793C34.2519 15.3617 34.1178 15.0907 34.0689 14.7995C34.0199 14.5084 34.0582 14.2095 34.1789 13.9392C34.2997 13.669 34.4979 13.4392 34.7491 13.2777C35.0005 13.1161 35.2941 13.0299 35.5944 13.0295C35.6403 13.0295 35.6873 13.0295 35.7343 13.0356C36.1431 13.072 36.5205 13.2663 36.7838 13.5759C37.047 13.8855 37.1746 14.285 37.1386 14.6869Z" fill="#7C4032"/>
<path d="M68.0957 0.272964H77.7751C81.6436 0.272964 84.6862 2.99089 84.6862 7.20239C84.6862 10.7353 82.6111 12.7746 80.1238 13.5897L84.9635 19.2984H78.0494L73.9036 13.8626V19.2984H68.0957V0.272964ZM77.3548 8.83239C77.7677 8.79375 78.1509 8.60536 78.4295 8.30396C78.7087 8.0025 78.8628 7.60975 78.8628 7.20239C78.8628 6.79496 78.7087 6.40222 78.4295 6.10082C78.1509 5.79941 77.7677 5.61099 77.3548 5.57236H73.9036V8.83239H77.3548Z" fill="#7C4032"/>
<path d="M87.0371 9.78377C87.0371 4.07872 91.1643 0 96.5742 0C101.984 0 106.115 4.07872 106.115 9.78377C106.115 15.4888 101.965 19.5675 96.5742 19.5675C91.1829 19.5675 87.0371 15.4925 87.0371 9.78377ZM100.307 9.78377C100.307 7.20232 98.6492 5.57229 96.5556 5.57229C94.462 5.57229 92.8035 7.20232 92.8035 9.78377C92.8035 12.3652 94.462 13.9989 96.5556 13.9989C98.6492 13.9989 100.307 12.3652 100.307 9.78377Z" fill="#7C4032"/>
<path d="M109.016 11.1446V0.272964H114.823V11.1446C114.823 12.9111 115.93 13.999 117.45 13.999C118.969 13.999 120.076 12.9111 120.076 11.1446V0.272964H125.88V11.1446C125.88 16.3076 122.563 19.5676 117.446 19.5676C112.328 19.5676 109.016 16.3076 109.016 11.1446Z" fill="#7C4032"/>
<path d="M129.477 0.272964H135.975L140.263 8.5632H140.814V0.272964H146.622V19.2984H140.124L135.84 11.0193H135.284V19.3095H129.477V0.272964Z" fill="#7C4032"/>
<path d="M150.355 0.272964H157.818C163.352 0.272964 167.498 4.348 167.498 9.78384C167.498 15.2197 163.37 19.2984 157.818 19.2984H150.355V0.272964ZM157.957 13.7261C160.032 13.7261 161.709 12.0961 161.709 9.78384C161.709 7.47158 160.05 5.84526 157.957 5.84526H156.16V13.7261H157.957Z" fill="#7C4032"/>
<path d="M179.25 0.272964H188.929C192.798 0.272964 195.84 2.99089 195.84 7.20239C195.84 10.7353 193.765 12.7746 191.278 13.5897L196.118 19.2984H189.204L185.058 13.8626V19.2984H179.25V0.272964ZM188.513 8.83239C188.926 8.79375 189.309 8.60536 189.587 8.30396C189.867 8.0025 190.021 7.60975 190.021 7.20239C190.021 6.79496 189.867 6.40222 189.587 6.10082C189.309 5.79941 188.926 5.61099 188.513 5.57236H185.058V8.83239H188.513Z" fill="#7C4032"/>
<path d="M198.191 9.78377C198.191 4.07872 202.337 0 207.728 0C213.12 0 217.269 4.07872 217.269 9.78377C217.269 15.4888 213.12 19.5675 207.728 19.5675C202.337 19.5675 198.191 15.4925 198.191 9.78377ZM211.461 9.78377C211.461 7.20232 209.804 5.57229 207.728 5.57229C205.654 5.57229 203.996 7.20232 203.996 9.78377C203.996 12.3652 205.654 13.9989 207.728 13.9989C209.804 13.9989 211.461 12.3652 211.461 9.78377Z" fill="#7C4032"/>
<path d="M219.619 9.78377C219.619 4.07872 223.769 0 229.16 0C234.138 0 237.594 3.39648 238.284 8.01729H232.477C232.289 7.30004 231.858 6.6671 231.255 6.22267C230.652 5.77825 229.913 5.54887 229.16 5.5723C227.085 5.5723 225.427 7.20232 225.427 9.78377C225.427 12.3653 227.085 13.9989 229.16 13.9989C230.957 13.9989 232.064 12.9111 232.477 11.4175H238.284C237.594 16.1748 234.138 19.5712 229.16 19.5712C223.769 19.5675 219.619 15.4925 219.619 9.78377Z" fill="#7C4032"/>
<path d="M241.326 0.272964H247.13V8.01736L251.28 0.272964H257.917L252.665 9.64742L258.472 19.2984H251.831L247.13 11.1446V19.2984H241.326V0.272964Z" fill="#7C4032"/>
<path d="M68.0957 27.903H71.7314C72.0527 27.8922 72.3733 27.9465 72.6729 28.0626C72.9726 28.1787 73.2443 28.3541 73.4721 28.5778C73.6999 28.8015 73.8782 29.0689 73.9965 29.3633C74.1141 29.6577 74.1698 29.9727 74.1587 30.289C74.1785 30.6799 74.0881 31.0685 73.8962 31.4117C73.7049 31.7549 73.4201 32.039 73.0741 32.2325V32.2952C73.4598 32.4693 73.7817 32.7544 73.9983 33.1127C74.2144 33.471 74.3153 33.8856 74.2862 34.3014C74.2973 34.6174 74.2416 34.9324 74.124 35.2265C74.0058 35.5207 73.8268 35.7878 73.5997 36.0113C73.3718 36.2348 73.0995 36.4098 72.8005 36.5255C72.5008 36.6412 72.1802 36.695 71.8589 36.6837H68.1068L68.0957 27.903ZM71.7314 31.919C71.9561 31.9295 72.1802 31.8951 72.3913 31.8178C72.6018 31.7405 72.7943 31.622 72.9571 31.4695C73.1199 31.3169 73.2493 31.1334 73.3378 30.9302C73.4263 30.727 73.4721 30.5082 73.4721 30.2872C73.4721 30.0661 73.4263 29.8473 73.3378 29.6441C73.2493 29.4408 73.1199 29.2574 72.9571 29.1049C72.7943 28.9523 72.6018 28.8338 72.3913 28.7565C72.1802 28.6792 71.9561 28.6448 71.7314 28.6553H68.8608V31.919H71.7314ZM71.8589 35.9314C72.0787 35.9385 72.2978 35.9013 72.5027 35.8219C72.707 35.7426 72.8933 35.6229 73.0487 35.4701C73.2047 35.3173 73.3267 35.1348 73.4078 34.9338C73.4895 34.7327 73.5278 34.5175 73.521 34.3014C73.5384 34.0826 73.5074 33.8626 73.43 33.6568C73.3527 33.451 73.2307 33.2641 73.0728 33.1091C72.9144 32.9541 72.7243 32.8346 72.5145 32.7591C72.3052 32.6835 72.0811 32.6535 71.8589 32.6713H68.8571V35.9314H71.8589Z" fill="#7C4032"/>
<path d="M83.5762 27.9016H84.3265V36.6823H83.5762V27.9016Z" fill="#7C4032"/>
<path d="M93.6113 32.4192C93.6113 29.7197 95.461 27.9016 97.8208 27.9016C98.7073 27.9081 99.5672 28.2002 100.269 28.7332C100.97 29.266 101.474 30.0103 101.704 30.8519H100.875C100.668 30.2121 100.261 29.6532 99.7102 29.2555C99.1605 28.8579 98.4962 28.6421 97.8134 28.6392C95.8999 28.6392 94.369 30.1438 94.369 32.4045C94.369 34.6651 95.8999 36.166 97.8134 36.166C98.5024 36.1637 99.1728 35.9428 99.7244 35.5362C100.276 35.1296 100.679 34.559 100.875 33.9091H101.704C101.48 34.7604 100.979 35.516 100.275 36.0597C99.5728 36.6034 98.7073 36.9051 97.8134 36.9184C95.461 36.9331 93.6113 35.115 93.6113 32.4192Z" fill="#7C4032"/>
<path d="M114.307 33.3854L110.99 27.9016H111.846L114.573 32.4192H114.828L117.548 27.9016H118.404L115.084 33.3854V36.6823H114.333L114.307 33.3854Z" fill="#7C4032"/>
<path d="M127.689 32.4192C127.689 29.7197 129.539 27.9016 131.899 27.9016C132.787 27.9058 133.65 28.1967 134.353 28.7298C135.057 29.2629 135.563 30.0085 135.793 30.8519H134.964C134.757 30.2118 134.349 29.6528 133.798 29.2552C133.247 28.8576 132.582 28.6419 131.899 28.6392C129.985 28.6392 128.455 30.1438 128.455 32.4045C128.455 34.6651 129.985 36.166 131.899 36.166C132.589 36.1645 133.26 35.9439 133.812 35.5373C134.365 35.1307 134.769 34.5596 134.964 33.9091H135.793C135.569 34.7607 135.067 35.5164 134.363 36.06C133.66 36.6037 132.793 36.9053 131.899 36.9184C129.539 36.9331 127.689 35.115 127.689 32.4192Z" fill="#7C4032"/>
<path d="M145.08 27.9016H145.83V35.93H150.426V36.6675H145.08V27.9016Z" fill="#7C4032"/>
<path d="M159.722 27.9016H165.35V28.6392H160.488V31.9029H165.084V32.6405H160.488V35.9005H165.339V36.6381H159.711L159.722 27.9016Z" fill="#7C4032"/>
<path d="M179.523 27.9016H183.223C184.753 27.9016 185.849 28.9674 185.849 30.5384C185.849 32.1684 184.701 33.2342 183.223 33.2342H182.33L186.029 36.6823H185.009L181.309 33.2342H180.289V36.6823H179.538L179.523 27.9016ZM183.223 32.4819C184.307 32.4819 185.073 31.7444 185.073 30.5384C185.09 30.2921 185.055 30.045 184.969 29.8131C184.883 29.5811 184.748 29.3694 184.574 29.1918C184.4 29.0141 184.189 28.8745 183.956 28.7818C183.724 28.6892 183.474 28.6456 183.223 28.654H180.289V32.4819H183.223Z" fill="#7C4032"/>
<path d="M195.326 27.9016H200.953V28.6392H196.091V31.9029H200.687V32.6405H196.091V35.9005H200.942V36.6381H195.314L195.326 27.9016Z" fill="#7C4032"/>
<path d="M210.24 27.9016H213.94C214.295 27.9013 214.647 27.9718 214.973 28.1088C215.3 28.2459 215.595 28.4466 215.84 28.699C216.086 28.9514 216.277 29.25 216.402 29.577C216.526 29.9039 216.582 30.2524 216.566 30.6011C216.587 30.948 216.534 31.2953 216.41 31.6208C216.286 31.9463 216.095 32.2427 215.848 32.4907C215.6 32.7389 215.302 32.9332 214.973 33.0613C214.645 33.1894 214.293 33.2483 213.94 33.2343H211.006V36.6823H210.255L210.24 27.9016ZM213.94 32.4819C214.19 32.4907 214.44 32.4477 214.674 32.3555C214.907 32.2633 215.117 32.124 215.292 31.9467C215.467 31.7694 215.601 31.558 215.688 31.3263C215.774 31.0944 215.81 30.8474 215.793 30.6011C215.793 29.4063 215.024 28.654 213.94 28.654H211.006V32.4819H213.94Z" fill="#7C4032"/>
<path d="M229.221 27.9016H230.369L233.745 36.6823H232.995L232.076 34.3H227.525L226.606 36.6823H225.855L229.221 27.9016ZM231.775 33.5477L229.922 28.7167H229.667L227.817 33.5477H231.775Z" fill="#7C4032"/>
<path d="M243.031 27.9016H243.782V36.6823H243.031V27.9016Z" fill="#7C4032"/>
<path d="M253.066 27.9016H256.766C258.297 27.9016 259.392 28.9674 259.392 30.5384C259.392 32.1684 258.244 33.2342 256.766 33.2342H255.873L259.572 36.6823H258.567L254.867 33.2342H253.847V36.6823H253.097L253.066 27.9016ZM256.766 32.4819C257.85 32.4819 258.616 31.7444 258.616 30.5384C258.633 30.2921 258.598 30.045 258.512 29.8131C258.426 29.5811 258.291 29.3694 258.117 29.1918C257.943 29.0141 257.732 28.8745 257.499 28.7818C257.267 28.6892 257.017 28.6456 256.766 28.654H253.832V32.4819H256.766Z" fill="#7C4032"/>
</g>
<defs>
<clipPath id="clip0_37_22">
<rect width="260" height="37" fill="white"/>
</clipPath>
</defs>
</svg>
